<svg width="215" height="44" viewBox="0 0 215 44" fill="none"
  xmlns="http://www.w3.org/2000/svg">
  <path d="M31.4482 9.70401H35.1882V13.18C35.1882 12.5053 35.4816 11.8747 36.0682 11.288C36.6549 10.672 37.4029 10.188 38.3122 9.83601C39.2216 9.45467 40.1162 9.26401 40.9962 9.26401H42.9322V12.652H40.7322C38.8549 12.652 37.4909 12.9013 36.6402 13.4C35.8189 13.8693 35.4082 14.7347 35.4082 15.996V31H31.4482V9.70401ZM54.75 31.44C52.726 31.44 51.1567 31.2493 50.042 30.868C48.9567 30.4867 48.1647 29.812 47.666 28.844C47.1967 27.876 46.962 26.4827 46.962 24.664C46.962 23.0507 47.182 21.804 47.622 20.924C48.0913 20.0147 48.8687 19.3693 49.954 18.988C51.0687 18.6067 52.638 18.416 54.662 18.416H61.042V15.028C61.042 14.236 60.8807 13.6347 60.558 13.224C60.2647 12.784 59.7513 12.476 59.018 12.3C58.314 12.124 57.2727 12.036 55.894 12.036C53.694 12.036 51.2593 12.212 48.59 12.564V9.66001C51.494 9.39601 54.1193 9.26401 56.466 9.26401C58.93 9.26401 60.7487 9.45467 61.922 9.83601C63.0954 10.188 63.902 10.8187 64.342 11.728C64.782 12.6373 65.002 14.0453 65.002 15.952V31H61.174V28.976C60.8514 30.6187 58.71 31.44 54.75 31.44ZM55.41 28.844C56.8474 28.844 58.0647 28.7413 59.062 28.536C60.382 28.272 61.042 27.656 61.042 26.688V20.88H54.926C53.6647 20.88 52.7554 20.9827 52.198 21.188C51.6407 21.364 51.274 21.716 51.098 22.244C50.922 22.772 50.834 23.6227 50.834 24.796C50.834 25.852 50.9367 26.6733 51.142 27.26C51.3474 27.8173 51.714 28.228 52.242 28.492C52.77 28.7267 53.562 28.844 54.618 28.844H55.41ZM73.1898 9.70401H77.1058V11.992H77.1498C77.4725 10.1733 79.8925 9.26401 84.4098 9.26401C87.1085 9.26401 89.1471 9.83601 90.5258 10.98C91.9045 12.0947 92.5938 13.532 92.5938 15.292V24.048C92.5938 25.3093 92.4031 26.4093 92.0218 27.348C91.6698 28.2867 91.2005 29.02 90.6138 29.548C90.0858 30.0467 89.3525 30.4427 88.4138 30.736C87.5045 31.0293 86.5951 31.22 85.6858 31.308C84.8645 31.396 83.8671 31.44 82.6938 31.44C81.4031 31.44 80.2151 31.2933 79.1298 31C78.0738 30.6773 77.4138 30.2227 77.1498 29.636V40.152H73.1898V9.70401ZM82.7818 28.756C84.3071 28.756 85.4658 28.6533 86.2578 28.448C87.0791 28.2133 87.6658 27.8027 88.0178 27.216C88.3698 26.6293 88.5458 25.7347 88.5458 24.532V16.7C88.5458 15.38 88.3698 14.3973 88.0178 13.752C87.6658 13.1067 87.0791 12.6813 86.2578 12.476C85.4658 12.2413 84.2925 12.124 82.7378 12.124C81.1831 12.124 80.0245 12.2413 79.2618 12.476C78.4991 12.6813 77.9565 13.1067 77.6338 13.752C77.3111 14.368 77.1498 15.3507 77.1498 16.7V24.532C77.1498 25.7347 77.3111 26.6293 77.6338 27.216C77.9858 27.8027 78.5578 28.2133 79.3498 28.448C80.1418 28.6533 81.2858 28.756 82.7818 28.756ZM99.9903 0.200006H103.95V12.3C104.361 10.276 106.693 9.26401 110.946 9.26401C113.674 9.26401 115.581 9.76267 116.666 10.76C117.781 11.728 118.338 13.268 118.338 15.38V31H114.378V15.644C114.378 15.0867 114.334 14.632 114.246 14.28C114.158 13.928 113.982 13.576 113.718 13.224C113.132 12.4907 111.826 12.124 109.802 12.124C108.189 12.124 106.957 12.2413 106.106 12.476C105.285 12.6813 104.713 13.0333 104.39 13.532C104.097 14.0307 103.95 14.7347 103.95 15.644V31H99.9903V0.200006ZM131.593 31.308L123.365 9.70401H127.677L133.617 27.084H133.705L139.073 9.70401H143.077L132.385 40.152H128.249L131.593 31.308ZM146.419 16.832H158.651V20H146.419V16.832ZM165.181 9.70401H169.141V12.3C169.551 10.276 171.883 9.26401 176.137 9.26401C178.865 9.26401 180.771 9.76267 181.857 10.76C182.971 11.728 183.529 13.268 183.529 15.38V31H179.569V15.6C179.569 15.0427 179.525 14.588 179.437 14.236C179.349 13.884 179.173 13.532 178.909 13.18C178.322 12.4467 177.017 12.08 174.993 12.08C173.438 12.08 172.235 12.1973 171.385 12.432C170.563 12.6373 169.977 12.9893 169.625 13.488C169.302 13.9867 169.141 14.6907 169.141 15.6V31H165.181V9.70401ZM199.775 40.68C196.871 40.68 194.422 40.5187 192.427 40.196V37.38C195.947 37.7907 198.514 37.996 200.127 37.996C202.151 37.996 203.618 37.6733 204.527 37.028C205.466 36.3827 205.935 35.312 205.935 33.816V28.712C205.877 29.6507 205.231 30.34 203.999 30.78C202.797 31.22 201.271 31.44 199.423 31.44C197.223 31.44 195.507 31.2347 194.275 30.824C193.073 30.4133 192.207 29.7387 191.679 28.8C191.181 27.8613 190.931 26.5853 190.931 24.972V16.304C190.931 13.7813 191.606 11.9773 192.955 10.892C194.334 9.80667 196.578 9.26401 199.687 9.26401C203.383 9.26401 205.554 10.1 206.199 11.772V9.70401H209.895V33.024C209.895 34.9893 209.529 36.5293 208.795 37.644C208.062 38.7587 206.962 39.536 205.495 39.976C204.029 40.4453 202.122 40.68 199.775 40.68ZM200.259 28.8C202.342 28.8 203.809 28.5507 204.659 28.052C205.51 27.5533 205.935 26.6147 205.935 25.236V15.6C205.935 14.632 205.774 13.8987 205.451 13.4C205.158 12.9013 204.601 12.5493 203.779 12.344C202.958 12.1093 201.755 11.992 200.171 11.992C198.675 11.992 197.546 12.0947 196.783 12.3C196.05 12.5053 195.537 12.872 195.243 13.4C194.979 13.8987 194.847 14.632 194.847 15.6V25.236C194.847 26.2333 194.994 26.9813 195.287 27.48C195.581 27.9787 196.109 28.3307 196.871 28.536C197.634 28.712 198.763 28.8 200.259 28.8Z" fill="#333048"/>
  <line x1="2.48376" y1="12" x2="2.48377" y2="28.0264" stroke="#E91010" stroke-width="3"/>
  <line x1="3.98376" y1="29.5264" x2="16.9838" y2="29.5264" stroke="#E91010" stroke-width="3"/>
  <line x1="3.98376" y1="42.5" x2="20.9838" y2="42.5" stroke="#E91010" stroke-width="3"/>
  <line x1="3.98376" y1="10.5" x2="20.9838" y2="10.5" stroke="#E91010" stroke-width="3"/>
  <line x1="22.4838" y1="12" x2="22.4838" y2="41.2124" stroke="#E91010" stroke-width="3"/>
  <circle cx="20.9838" cy="12" r="3" fill="#E91010"/>
  <circle cx="20.9838" cy="41" r="3" fill="#E91010"/>
  <circle cx="3.98376" cy="41" r="3" fill="#E91010"/>
  <circle cx="3.98376" cy="12" r="3" fill="#E91010"/>
  <circle cx="3.98376" cy="28.0264" r="3" fill="#E91010"/>
  <circle cx="16.9838" cy="28.0264" r="3" fill="#E91010"/>
</svg>
